<svg width="426" height="174" viewBox="0 0 426 174" fill="none" xmlns="http://www.w3.org/2000/svg">
<path d="M263.35 118.959C262.764 119.657 262.381 120.536 261.75 121.189C252.56 130.898 239.607 136.664 225.326 136.664C197.462 136.664 174.846 114.048 174.846 86.1839C174.846 58.3194 197.462 35.7035 225.326 35.7035C239.923 35.7035 253.191 42.0558 262.178 51.9897C262.629 52.4852 262.922 53.0934 263.35 53.6115C268.08 42.1684 275.288 32.0543 284.186 23.6521C283.938 23.4044 283.736 23.1341 283.488 22.8863C281.934 21.4446 280.312 20.0255 278.645 18.6965C264.138 7.0506 245.712 0 225.326 0C188.001 0 156.51 24.1477 144.526 57.2382V1.89218H67.8704C25.0262 1.89218 8.58235 28.8106 8.58235 56.4047C8.58235 79.4937 20.7238 102.831 49.0613 109.025H47.6196L0 172.12H45.705L88.5491 110.94H106.885V172.12H144.503V115.31C156.487 148.513 187.956 172.368 225.304 172.368C246.365 172.368 265.264 165.047 280.019 152.838C281.483 151.621 282.654 150.09 284.028 148.783C275.176 140.449 268.013 130.38 263.305 118.959H263.35ZM106.908 82.1292H77.8719C60.0089 82.1292 45.2544 78.0746 45.2544 56.4047C45.2544 34.7349 60.0089 30.928 77.8719 30.928H106.908V82.1067V82.1292Z" fill="#491BFF"/>
<path d="M393.324 111.052C392.986 111.661 392.468 112.134 392.13 112.719C383.3 127.857 367.374 137.475 349.038 137.475C345.163 137.475 341.424 136.935 337.798 136.124C315.362 130.988 298.557 110.985 298.557 87.0174C298.557 59.4007 321.173 36.537 349.038 36.537C351.561 36.537 353.903 37.1677 356.336 37.5281C370.325 39.623 382.331 47.3268 389.787 58.3195C390.44 59.2655 391.319 60.0539 391.882 61.0676C408.078 53.2061 409.272 52.5078 423.801 44.8715C410.624 21.332 386.634 4.4151 357.936 1.44169C355.007 1.12632 352.056 0.833496 349.038 0.833496C301.418 0.833496 262.854 39.8708 262.854 87.0174C262.854 128.285 291.867 162.659 330.589 171.106C336.536 172.413 342.686 173.201 349.038 173.201C382.601 173.201 410.714 154.64 425.22 127.249C409.993 120.333 409.497 119.387 393.324 111.052Z" fill="#491BFF"/>
</svg>
