<svg width="488" height="488" viewBox="0 0 488 488" fill="none" xmlns="http://www.w3.org/2000/svg">
<g clip-path="url(#clip0_239_34)">
<path d="M244 488C378.757 488 488 378.757 488 244C488 109.243 378.757 0 244 0C109.243 0 0 109.243 0 244C0 378.757 109.243 488 244 488Z" fill="#491BFF"/>
<path d="M294.729 276.37C294.143 277.068 293.76 277.946 293.129 278.6C283.939 288.308 270.986 294.075 256.705 294.075C228.84 294.075 206.225 271.459 206.225 243.595C206.225 215.73 228.84 193.114 256.705 193.114C271.302 193.114 284.569 199.466 293.557 209.4C294.008 209.896 294.301 210.504 294.729 211.022C299.459 199.579 306.667 189.465 315.565 181.063C315.317 180.815 315.115 180.545 314.867 180.297C313.312 178.855 311.691 177.436 310.024 176.107C295.517 164.461 277.091 157.411 256.705 157.411C219.38 157.411 187.888 181.558 175.905 214.649V159.303H99.2493C56.4051 159.303 39.9613 186.221 39.9613 213.815C39.9613 236.904 52.1027 260.241 80.4402 266.436H78.9986L31.3789 329.531H77.0839L119.928 268.35H138.264V329.531H175.882V272.72C187.866 305.924 219.335 329.778 256.682 329.778C277.744 329.778 296.643 322.458 311.398 310.249C312.862 309.032 314.033 307.5 315.407 306.194C306.555 297.859 299.391 287.79 294.684 276.37H294.729ZM138.287 239.54H109.251C91.3878 239.54 76.6333 235.485 76.6333 213.815C76.6333 192.146 91.3878 188.339 109.251 188.339H138.287V239.517V239.54Z" fill="white"/>
<path d="M424.703 268.463C424.365 269.071 423.847 269.544 423.509 270.13C414.679 285.267 398.753 294.886 380.417 294.886C376.542 294.886 372.803 294.345 369.176 293.534C346.741 288.398 329.936 268.396 329.936 244.428C329.936 216.811 352.552 193.948 380.417 193.948C382.94 193.948 385.282 194.578 387.715 194.939C401.704 197.034 413.71 204.737 421.166 215.73C421.819 216.676 422.698 217.465 423.261 218.478C439.457 210.617 440.651 209.918 455.18 202.282C442.003 178.743 418.012 161.826 389.315 158.852C386.386 158.537 383.435 158.244 380.417 158.244C332.797 158.244 294.233 197.281 294.233 244.428C294.233 285.695 323.246 320.07 361.968 328.517C367.915 329.824 374.065 330.612 380.417 330.612C413.98 330.612 442.093 312.051 456.599 284.659C441.372 277.744 440.876 276.798 424.703 268.463Z" fill="white"/>
</g>
<defs>
<clipPath id="clip0_239_34">
<rect width="488" height="488" fill="white"/>
</clipPath>
</defs>
</svg>
